Coordinates
version=1
nRows=26
nColumns=24
inDegrees=yes

Units are S.I. units (second, meters, Newtons, ...)
Angles are in degrees.

endheader
time	pelvis_tilt	pelvis_list	pelvis_rotation	pelvis_tx	pelvis_ty	pelvis_tz	hip_flexion_r	hip_adduction_r	hip_rotation_r	knee_angle_r	ankle_angle_r	subtalar_angle_r	mtp_angle_r	hip_flexion_l	hip_adduction_l	hip_rotation_l	knee_angle_l	ankle_angle_l	subtalar_angle_l	mtp_angle_l	lumbar_extension	lumbar_bending	lumbar_rotation
      1.46633333	      2.24405266	      4.25046191	     -1.98858392	      0.32930078	      1.02994536	      0.30198888	     14.89780732	     -7.98434776	     -8.01216018	    -69.94123840	     -1.94648289	     -6.12532174	      0.01894385	      6.17640166	      9.09012094	      5.63360671	    -13.75749518	      4.74246608	    -14.23401755	      1.37802528	     -5.75840127	     -5.63761269	      3.68402227
      1.47050000	      2.22381406	      4.07654076	     -1.93486465	      0.33395196	      1.03073156	      0.30157593	     15.51381940	     -7.78203242	     -8.05925332	    -69.69684735	     -1.49552984	     -6.02558164	      0.00747476	      5.74434079	      8.92424247	      5.73361297	    -13.45123503	      4.81014492	    -14.21210132	      1.37229414	     -5.83031215	     -5.39762887	      3.59145039
      1.47466667	      2.22675749	      3.90011936	     -1.87054773	      0.33860439	      1.03154609	      0.30114708	     16.08188461	     -7.58014879	     -8.12087389	    -69.38556113	     -1.05659407	     -5.90623622	     -0.00149885	      5.28074529	      8.75661338	      5.84780996	    -13.13041061	      4.87865549	    -14.18675106	      1.36551688	     -5.92322235	     -5.15922397	      3.47579220
      1.47883333	      2.25893957	      3.74319381	     -1.79710170	      0.34325837	      1.03235450	      0.30070202	     16.60425988	     -7.40894707	     -8.19858902	    -69.03138499	     -0.62373177	     -5.76483758	     -0.02262021	      4.77698005	      8.61151527	      5.98326552	    -12.78858973	      4.93923278	    -14.18076485	      1.35055509	     -6.04145748	     -4.95493269	      3.28544056
      1.48300000	      2.24348068	      3.57157108	     -1.71676839	      0.34790092	      1.03306272	      0.30026672	     17.16294631	     -7.21036482	     -8.27817928	    -68.61689713	     -0.24071511	     -5.76269930	     -0.02347030	      4.34159859	      8.44294735	      6.07276644	    -12.47867586	      5.00529429	    -14.14091845	      1.34558327	     -6.08320693	     -4.72666836	      3.21525835
      1.48716667	      2.27800733	      3.41031167	     -1.61555957	      0.35250185	      1.03380222	      0.29977299	     17.65024324	     -7.04023674	     -8.38232824	    -68.15615020	      0.16129542	     -5.62501371	     -0.04083152	      3.84524252	      8.29450467	      6.24257862	    -12.15115330	      5.06934856	    -14.13531375	      1.32647641	     -6.24322846	     -4.50328897	      2.98252504
      1.49133333	      2.27042692	      3.23804158	     -1.51597004	      0.35712966	      1.03445468	      0.29931113	     18.16407121	     -6.84563317	     -8.48488061	    -67.63153337	      0.52544759	     -5.64753226	     -0.04172621	      3.40762758	      8.12293908	      6.33902147	    -11.84898516	      5.13452434	    -14.08995830	      1.32029852	     -6.29519323	     -4.26553622	      2.90712357
      1.49550000	      2.31484153	      3.08529288	     -1.40085130	      0.36172298	      1.03514498	      0.29881162	     18.60496941	     -6.68541907	     -8.60087065	    -67.05926952	      0.87481115	     -5.58124454	     -0.05783911	      2.90413712	      7.97868294	      6.51301292	    -11.52314157	      5.19809914	    -14.07900284	      1.29863162	     -6.46572078	     -4.05822362	      2.65717301
      1.49966667	      2.31101852	      2.91957062	     -1.27902578	      0.36632241	      1.03571829	      0.29832050	     19.08051719	     -6.50384378	     -8.72427365	    -66.43197868	      1.22191646	     -5.62180078	     -0.05984415	      2.47272925	      7.81214885	      6.62120020	    -11.23372548	      5.26734334	    -14.03218283	      1.29094650	     -6.53005582	     -3.82505822	      2.56959264
      1.50383333	      2.31559429	      2.77452836	     -1.15407933	      0.37092791	      1.03626412	      0.29782728	     19.53108149	     -6.34832888	     -8.84728040	    -65.75676966	      1.55180303	     -5.65280867	     -0.06257668	      2.02885289	      7.66719462	      6.75384070	    -10.93613876	      5.34369223	    -13.98352861	      1.28278155	     -6.61459381	     -3.61590013	      2.43467327
      1.50800000	      2.38375556	      2.62100230	     -1.01830406	      0.37550832	      1.03689011	      0.29734057	     19.88500088	     -6.18222037	     -8.98004511	    -65.00926757	      1.83932925	     -5.69909318	     -0.08325372	      1.50956086	      7.51284777	      6.92915174	    -10.62100621	      5.39796825	    -13.97198424	      1.25575243	     -6.81087873	     -3.42152001	      2.12648609
      1.51216667	      2.36800758	      2.48050201	     -0.88242037	      0.38010895	      1.03731820	      0.29683893	     20.32277726	     -6.02985330	     -9.10478110	    -64.22951150	      2.12030891	     -5.76590033	     -0.09721219	      1.09598119	      7.36977771	      7.08020129	    -10.33591981	      5.48277346	    -13.93422490	      1.23775488	     -6.87085428	     -3.21471923	      1.96840171
      1.51633333	      2.41208848	      2.33983896	     -0.74172155	      0.38470715	      1.03782371	      0.29635499	     20.66711729	     -5.87616167	     -9.23897636	    -63.38098372	      2.39164715	     -5.86804553	     -0.11334599	      0.61687208	      7.22221796	      7.22435067	    -10.04520181	      5.55600973	    -13.89098380	      1.21888177	     -7.00739075	     -3.01917449	      1.78688494
      1.52050000	      2.41444516	      2.19976891	     -0.59461699	      0.38931152	      1.03821364	      0.29586713	     21.03941885	     -5.72057483	     -9.37202213	    -62.48285730	      2.64583228	     -5.99686498	     -0.13131070	      0.19218503	      7.07285046	      7.37024849	     -9.77330565	      5.63800952	    -13.84510946	      1.20100447	     -7.08758860	     -2.82231688	      1.60428638
      1.52466667	      2.42098824	      2.07922323	     -0.44861733	      0.39392959	      1.03857255	      0.29539190	     21.38925265	     -5.58457355	     -9.49795787	    -61.53662573	      2.88224097	     -6.13822022	     -0.15006701	     -0.23388695	      6.94280946	      7.51327687	     -9.50669357	      5.72109319	    -13.79945261	      1.18479817	     -7.17025180	     -2.65091224	      1.42805247
      1.52883333	      2.40506427	      1.95344297	     -0.29288235	      0.39854420	      1.03885724	      0.29491474	     21.74097096	     -5.44122452	     -9.62918750	    -60.53609537	      3.13660445	     -6.29011768	     -0.16245401	     -0.62040288	      6.80395971	      7.64536327	     -9.27008215	      5.80380371	    -13.74665405	      1.17577102	     -7.23096303	     -2.47368689	      1.30367553
      1.53300000	      2.40120595	      1.83866712	     -0.14307774	      0.40317477	      1.03910806	      0.29446216	     22.06037230	     -5.30390962	     -9.74766928	    -59.48206226	      3.33824111	     -6.47573360	     -0.18004212	     -1.02505605	      6.67444348	      7.78604132	     -9.02318968	      5.89911668	    -13.69518842	      1.16660353	     -7.29888977	     -2.30923848	      1.13506848
      1.53716667	      2.41126567	      1.73181658	      0.00371517	      0.40783245	      1.03936157	      0.29402731	     22.34010937	     -5.17079157	     -9.86039255	    -58.36498215	      3.46692504	     -6.70916538	     -0.21319713	     -1.45533950	      6.55121313	      7.93991882	     -8.75418404	      5.99488425	    -13.64978401	      1.15056023	     -7.37343215	     -2.15569239	      0.88820966
      1.54133333	      2.40642517	      1.63493585	      0.15540358	      0.41248001	      1.03953434	      0.29360817	     22.61785371	     -5.04380083	     -9.96605441	    -57.20556145	      3.63564725	     -6.93999962	     -0.25412207	     -1.85379945	      6.43603388	      8.08671345	     -8.51679735	      6.07847676	    -13.60529556	      1.13132603	     -7.44916276	     -2.01549164	      0.68896109
      1.54550000	      2.36949905	      1.53780810	      0.31562519	      0.41714417	      1.03963337	      0.29317844	     22.90546238	     -4.91890369	    -10.07721266	    -55.99186392	      3.81683129	     -7.13045534	     -0.27804277	     -2.20484250	      6.31970681	      8.22456094	     -8.30683511	      6.18058535	    -13.55513979	      1.12325131	     -7.46476298	     -1.87233550	      0.57620893
      1.54966667	      2.38151414	      1.45471469	      0.45939877	      0.42182896	      1.03975565	      0.29280541	     23.11865109	     -4.79628404	    -10.16898917	    -54.71760464	      3.87735173	     -7.42772149	     -0.32849390	     -2.62727259	      6.21394451	      8.36585189	     -8.05839362	      6.28728749	    -13.51167415	      1.10679746	     -7.53641470	     -1.75542304	      0.34812005
      1.55383333	      2.34635216	      1.36506044	      0.61603354	      0.42653606	      1.03977318	      0.29242328	     23.35549962	     -4.66657599	    -10.26364300	    -53.38967370	      3.96703755	     -7.68848620	     -0.37934909	     -2.98317765	      6.10019283	      8.51065919	     -7.84607075	      6.39757745	    -13.47277539	      1.09208344	     -7.55071692	     -1.62840223	      0.17094951
      1.55800000	      2.32380340	      1.29791620	      0.76659790	      0.43124184	      1.03976224	      0.29207651	     23.56080841	     -4.55482025	    -10.34400225	    -52.01795822	      4.03816021	     -7.96512909	     -0.43905454	     -3.35379693	      6.00804547	      8.65185047	     -7.62982485	      6.50136929	    -13.43326739	      1.07561068	     -7.58794300	     -1.53421382	     -0.00990629
      1.56216667	      2.26409454	      1.23040914	      0.92685416	      0.43595488	      1.03964941	      0.29172726	     23.78241136	     -4.44072108	    -10.42143226	    -50.59691270	      4.12837517	     -8.21365292	     -0.48762080	     -3.66742112	      5.91579731	      8.79662050	     -7.45183930	      6.61359266	    -13.39380272	      1.06449506	     -7.58253012	     -1.42870103	     -0.14798841
      1.56633333	      2.22206968	      1.17320546	      1.07029975	      0.44071899	      1.03952522	      0.29143492	     23.96023680	     -4.32804100	    -10.48743125	    -49.11754661	      4.11019306	     -8.54155814	     -0.56646244	     -4.02167556	      5.82960385	      8.93117890	     -7.23096662	      6.73132977	    -13.36200349	      1.04592563	     -7.58378204	     -1.35578162	     -0.36015979
      1.57050000	      2.16406439	      1.11250551	      1.22755427	      0.44549314	      1.03934684	      0.29113413	     24.12583843	     -4.21501745	    -10.56450337	    -47.58309179	      4.12501960	     -8.81462440	     -0.64000917	     -4.34432925	      5.73852521	      9.06787793	     -7.04253518	      6.85442928	    -13.33155466	      1.02976848	     -7.56700258	     -1.27216938	     -0.52190867
